<svg width="111" height="112" viewBox="0 0 111 112" fill="none" xmlns="http://www.w3.org/2000/svg">
<path d="M38.9207 57.5599C49.6371 62.1665 60.1596 50.5287 60.1596 34.0419C60.1596 29.6777 56.4258 23.6164 53.7588 23.6164C52.6435 23.6164 52.4011 23.8103 52.3526 24.6832C52.1586 45.7281 45.176 60.5178 40.0844 50.6257C35.6233 41.9459 42.1211 23.8103 49.9765 23.0345C55.262 22.5011 47.7945 18.2824 41.7816 21.2403C27.8648 28.126 26.0221 51.9834 38.9207 57.5599Z" fill="#1ABCFE"/>
<path d="M70.5365 48.9283C88.2841 57.9961 102.201 27.5924 86.1505 14.7908C81.7863 11.348 81.1074 12.2208 83.7744 17.7003C87.7991 25.9437 85.3261 40.006 78.9254 45.0975C78.7314 45.1945 77.3737 46.7462 75.7735 45.5824C67.8695 39.7151 69.5667 16.3425 78.101 13.6271C81.3499 12.6088 76.9857 10.5237 73.4944 11.3965C59.2381 15.0333 57.1045 42.0911 70.5365 48.9283Z" fill="#1ABCFE"/>
<path d="M106.856 57.0748C100.455 57.0263 68.9362 68.7126 68.8392 68.6641C68.5968 68.3731 85.0351 60.5176 94.7817 56.2989C104.48 52.1287 105.401 51.4014 102.831 50.0921C100.746 49.0253 97.8851 49.2193 92.3572 50.868C65.4934 58.772 17.924 76.3741 7.74092 81.8535C4.05564 83.8417 5.99527 85.5873 9.38962 85.0054C16.7117 83.7932 41.5875 74.386 48.8125 71.9614C43.5271 75.1618 26.5553 83.8417 9.38962 95.9643C2.6009 100.765 8.08038 103.383 20.3 97.1766C42.3148 85.9753 90.7085 65.1727 106.613 60.0327C110.444 58.772 110.541 57.0748 106.856 57.0748Z" fill="#1ABCFE"/>
<path d="M14.5782 65.9C14.3842 66.0939 12.2506 67.2577 9.77761 68.4215C1.19475 72.5917 7.64402 74.4828 11.8142 73.1736C18.1665 71.1855 32.8592 64.4453 33.3441 62.9905C33.8775 61.3419 29.4163 61.1964 24.3733 62.6996L23.258 63.039C23.5975 56.2018 24.3733 42.6244 23.8884 32.9748C23.549 26.4285 19.8637 28.1257 17.4391 30.4533C13.9963 33.7507 5.02553 44.952 2.55248 46.5037C-1.7147 49.1707 5.07402 51.1588 8.41987 49.8011C10.6504 48.8797 12.7355 46.8916 15.451 44.4671L15.1601 55.0381C15.0146 60.8085 14.7721 65.706 14.5782 65.9Z" fill="#1ABCFE"/>
</svg>
