<svg width="111" height="112" viewBox="0 0 111 112" fill="none" xmlns="http://www.w3.org/2000/svg">
<path fill-rule="evenodd" clip-rule="evenodd" d="M21.5067 3.42819C16.8392 5.03238 16.9849 4.88669 16.1825 8.38758C14.7969 14.2222 16.8386 65.2756 18.8082 75.4862C19.3186 77.9662 22.3813 78.6952 29.3108 78.039C32.7382 77.7471 36.9687 77.7471 38.7191 78.039C43.2408 78.8414 44.4808 78.3304 44.9913 75.1215C45.6474 70.7454 54.3267 33.4769 55.9315 19.1087C56.2198 16.3241 55.1307 13.5742 53.0139 11.7422C50.8972 9.91022 37.4791 -2.11445 21.5067 3.42819ZM43.0952 11.3046C44.4808 11.6694 44.7728 12.1798 44.408 13.6389C44.1889 14.6598 34.9263 63.5979 34.0511 68.6307C33.6135 71.4021 33.5406 71.4021 30.5508 71.183L27.4869 70.9645C26.466 48.7198 25.9556 32.8931 23.7681 15.3888C23.4756 13.2013 25.0075 11.2317 27.1956 10.867C32.4469 10.0652 38.1358 9.91892 43.0952 11.3046ZM69.4968 25.5266C67.5278 26.5475 67.2365 27.3504 64.6108 39.2381C58.8491 65.4212 57.7548 73.0797 59.3595 75.1215C61.6204 77.9662 73.5815 81.6856 79.4161 81.3937C81.9689 81.248 84.3027 79.7166 85.4692 77.4557C93.419 61.4833 98.2327 52.0744 102.244 41.2805C103.119 38.9468 102.463 36.3211 100.567 34.7164C92.3981 27.4955 75.2585 22.4633 69.4968 25.5266ZM84.8859 32.9659C92.3981 35.8107 93.5653 36.4668 92.8357 37.342C92.3253 37.9987 76.4985 73.9549 75.6962 74.7567C74.8209 75.7053 68.8407 73.8815 69.3511 72.8606C70.2263 71.1101 73.4353 57.3257 76.0609 43.3957C77.5194 35.5916 78.6866 31.1427 79.2699 31.1427C79.8537 31.2155 82.3331 32.0179 84.8859 32.9665V32.9659ZM19.5371 84.8217C-0.00897312 91.7506 8.45183 110.349 31.2069 110.349C44.7728 110.349 52.285 105.608 51.8473 100.065C51.3369 94.0115 31.4982 80.5918 19.5377 84.8217H19.5371ZM63.8084 90.073C49.513 97.1476 56.8795 109.619 75.3314 109.619C86.8549 109.619 95.8261 102.253 91.6686 96.2723C88.022 91.1667 69.8616 87.0826 63.8084 90.073ZM38.1358 93.8658C44.1889 98.1685 43.168 100.794 34.343 103.493C24.9347 106.337 17.4225 103.93 17.4225 99.2628C17.3497 97.0747 25.8099 85.1136 38.1358 93.8658ZM77.8114 94.8139C86.7092 99.9189 81.0931 107.431 70.8825 104.076C65.7774 102.399 64.6103 98.9708 67.7463 94.9595C70.0806 91.7506 72.4144 91.7506 77.8114 94.8139Z" fill="#38A1FF"/>
</svg>
