<svg width="111" height="112" viewBox="0 0 111 112" fill="none" xmlns="http://www.w3.org/2000/svg">
<path fill-rule="evenodd" clip-rule="evenodd" d="M28.3663 29.0399C28.8663 30.5396 29.2551 31.9839 29.2551 32.2616C29.2551 32.4838 27.3665 32.706 25.0335 32.706C21.4784 32.706 12.7574 33.7058 8.42472 34.6502C6.92494 34.9834 3.20325 37.9275 1.9812 39.8161C-0.0185038 42.8157 2.03674 52.8142 4.98078 54.3696C5.92508 54.8695 5.98064 55.0361 5.20296 56.5359C3.20325 60.3687 4.64749 66.1457 8.75801 70.5895C10.7577 72.7558 11.0355 73.3669 11.0355 75.6443C11.0355 79.0882 12.5908 81.9212 16.2014 85.1985C17.9789 86.8093 19.3676 88.5869 19.5898 89.5312C21.9228 99.0854 36.699 102.529 60.1401 98.9743C72.7494 97.0856 72.9161 97.0301 74.027 98.1411C75.8045 99.8075 77.9703 100.419 81.9698 100.419C85.3026 100.419 85.8031 100.585 86.8029 101.863C88.2472 103.696 92.0244 104.362 96.8015 103.696C98.6346 103.418 101.134 103.196 102.412 103.196C105.967 103.196 107.189 101.974 105.467 100.196C104.245 98.9187 103.689 98.7521 99.9122 98.7521C93.5798 98.7521 94.0241 100.641 92.6354 68.7564C92.3022 61.5907 91.9128 52.2588 91.6906 48.0371C91.2462 38.594 90.6352 39.2051 100.523 39.6495C109.077 40.0383 110.743 39.6495 108.855 37.5386C106.522 34.9279 99.1895 33.2615 90.2464 33.2615H88.3577C87.5801 33.2615 86.8579 33.5947 86.358 34.1502C85.8581 34.7057 85.5803 35.4278 85.5803 36.2055C85.6359 37.4275 85.692 38.4829 85.692 38.3163L79.0263 38.4274C72.4717 38.5385 72.3606 38.5385 72.4161 39.7605C72.4717 41.427 71.9718 41.3714 68.139 39.0384C64.6395 36.9276 63.1397 34.8168 55.4185 21.1521C52.8078 16.4861 50.5854 13.2643 48.5857 11.098C40.6423 2.43256 22.4227 10.0426 28.3663 29.0399ZM41.3095 11.4313C42.9203 12.7089 44.6979 16.375 46.5865 22.3741C50.4748 34.7057 59.1958 43.5933 71.2496 47.4817L72.916 48.0371C73.0272 51.5366 73.5826 79.5326 73.7493 89.6978L68.3051 90.0311C62.7503 90.42 47.3086 92.6418 42.4204 93.8084C35.0326 95.5303 26.5338 91.5864 26.5338 86.4761C26.5338 85.5873 26.2561 84.8652 25.9783 84.8652C22.3122 84.8652 16.7019 75.4221 18.8127 72.8669C19.146 72.4781 18.4794 71.5338 17.0907 70.1451C13.5357 66.7567 13.0357 65.368 13.4246 59.7577C13.7579 55.0917 13.7023 54.925 12.4247 54.0363C8.70302 51.5922 7.9809 43.8711 11.2582 41.7603C12.0914 41.2048 16.313 40.5938 23.8675 39.8716C39.1981 38.4274 38.2538 39.5384 35.8097 25.9292C33.6989 15.0419 36.5324 7.59848 41.3095 11.4313ZM86.0803 94.3083H81.1927L79.1368 44.3154H84.6366C85.3587 71.4782 84.4139 60.702 86.0803 94.3083Z" fill="#38A1FF"/>
</svg>
