<svg width="111" height="112" viewBox="0 0 111 112" fill="none" xmlns="http://www.w3.org/2000/svg">
<path fill-rule="evenodd" clip-rule="evenodd" d="M14.5013 12.1749C-5.15378 20.6412 -2.6305 51.186 21.0419 53.2112C34.2896 54.3401 46.7732 44.1473 46.7732 32.1949C46.7732 31.2653 47.404 31.2988 50.0933 30.5684C62.9422 27.1487 75.7246 31.3984 82.0328 41.2259C84.3901 44.8781 84.3901 44.9109 81.6344 44.9773C65.5983 45.2762 57.3308 65.1972 71.4745 69.447C84.589 73.3979 94.6161 64.2676 91.5948 51.1863C91.1964 49.5262 91.196 49.5262 92.6901 50.5223C100.526 55.8677 107.73 76.4189 101.688 94.9119C99.5627 101.386 104.576 104.142 107.465 95.4099C113.939 75.8212 105.805 51.3523 91.2292 46.7041C90.2996 46.4053 89.9012 46.0066 89.4032 44.9109C83.4602 31.6305 69.6488 25.1562 51.6206 27.2147C49.0973 27.5135 46.9721 27.7127 46.9057 27.6463C46.8725 27.6131 46.574 26.5507 46.3084 25.3223C43.5859 13.6022 25.126 7.59281 14.5017 12.1746L14.5013 12.1749ZM41.0294 30.2696C39.9337 48.331 17.6226 57.7933 9.85349 43.5168C3.37926 31.6308 9.22266 17.2879 21.9387 13.8682C28.7117 12.0421 41.8594 16.3583 41.0294 30.2696ZM85.0538 48.165C86.1494 49.2606 86.5814 54.1412 85.9506 57.6605C84.8217 63.7695 79.908 68.0857 74.8946 67.4217C65.2662 66.1268 71.2092 49.8247 81.9664 48.0651C84.5561 47.6334 84.5226 47.6338 85.0538 48.165Z" fill="black"/>
</svg>
