<svg width="111" height="112" viewBox="0 0 111 112" fill="none" xmlns="http://www.w3.org/2000/svg">
<path d="M67.1468 50.8317C68.9334 50.8317 70.1483 49.9742 71.3632 47.6876C75.7221 39.5407 79.2953 38.9691 81.2244 45.9721C83.1542 52.8325 90.4436 53.5473 90.4436 46.9011C90.4436 39.5407 78.8662 33.5378 70.5767 36.5392C64.4312 38.8259 61.5729 50.8317 67.1468 50.8317Z" fill="#FFC64C"/>
<path d="M28.8423 53.0467C28.8423 46.6864 33.2012 44.114 35.2736 49.1878C37.6318 54.8333 41.7766 56.4772 43.3483 52.3319C46.2788 44.7572 30.5572 37.3252 23.482 42.8991C20.6953 45.1147 18.1939 51.6176 19.1946 54.1901C20.4095 57.4057 28.8417 56.334 28.8417 53.0467H28.8423Z" fill="#FFC64C"/>
<path d="M33.7743 88.9195C52.9257 97.4239 72.3636 94.8509 85.1553 82.1308C98.5903 68.7674 93.4454 54.8318 76.0799 57.4764C74.4366 57.6906 69.577 59.4772 65.3606 61.4064C56.7853 65.2659 51.4966 65.5511 39.634 62.6929C20.1245 58.1191 15.1223 80.7016 33.7743 88.9195ZM83.2261 62.9787C86.5135 67.1235 85.0127 74.1987 79.9389 78.9867C76.58 82.1308 76.9374 82.4166 74.6508 74.5555C73.6501 71.054 72.5068 67.4809 72.0778 66.5518C70.7919 63.2645 80.9396 60.0488 83.2261 62.9787ZM61.7875 67.9099C66.0039 66.766 66.0039 66.695 67.9336 75.9136C70.077 86.0613 70.077 86.2039 66.4323 87.4904C59.3577 89.9918 60.1436 89.8486 58.4286 68.7674L61.7875 67.9099ZM44.7078 68.6958H52.6399C52.6399 83.6315 52.8547 83.4173 53.9264 88.8479L50.0675 88.1337C44.1362 87.0614 44.7078 86.633 44.7078 68.6958ZM36.5609 66.3376C39.0623 66.9808 40.134 84.6322 37.7042 84.6322C35.4176 84.6322 30.1295 78.1286 29.4147 74.3413C28.2714 68.1241 31.1296 64.9085 36.5609 66.3376Z" fill="#FFC64C"/>
<path d="M80.295 10.1684C69.0756 4.52291 68.7898 6.66689 79.3659 16.9572C112.454 49.0441 103.52 97.3527 63.8586 101.283C33.0581 104.356 11.1194 85.3469 11.6911 56.762C12.1195 34.0368 27.0552 10.24 51.6385 7.38113C56.5691 6.80949 56.7123 6.66689 54.4968 5.45198C51.0669 3.52221 41.0624 3.87963 34.9879 6.02362C27.0558 8.88187 18.9799 14.7416 12.6912 22.3168C-3.10202 41.1831 -1.38645 70.8402 11.0478 88.42C26.5551 110.359 78.5084 114.147 96.7314 94.6371C119.599 70.197 110.881 25.6041 80.295 10.1684Z" fill="#FFC64C"/>
</svg>
