<svg width="111" height="111" viewBox="0 0 111 111" fill="none" xmlns="http://www.w3.org/2000/svg">
<path d="M30.4391 90.3C29.1274 92.5133 34.2919 95.3824 52.4085 102.596C71.5907 110.22 76.0994 111.204 76.6732 108.171C77.411 103.99 32.6524 86.775 30.4391 90.3Z" fill="#FF7262"/>
<path d="M57.163 3.16032C50.2771 -0.282626 48.8015 0.455138 36.7511 13.3253C24.2909 26.6053 22.4874 29.4744 24.7827 32.0157C28.9635 36.6063 33.3901 34.147 49.6213 18.4897C61.5897 6.93119 62.2455 5.70156 57.163 3.16032Z" fill="#FF7262"/>
<path d="M83.3953 45.8696C78.4768 43.3284 76.1815 43.4104 67.4101 46.3615C41.4239 55.2148 22.1597 59.4775 31.8328 64.2321C35.7676 66.1995 40.7681 65.0518 71.5089 55.7067C88.4778 50.4603 89.9534 49.3126 83.3953 45.8696Z" fill="#FF7262"/>
</svg>
